<?xml version="1.0" encoding="UTF-8" standalone="no"?>
<!-- Created with Inkscape (http://www.inkscape.org/) -->

<svg
   width="640"
   height="580"
   viewBox="0 0 169.33333 153.45833"
   version="1.1"
   id="svg1"
   inkscape:version="1.4.2 (1:1.4.2+202505120737+ebf0e940d0)"
   sodipodi:docname="guia.svg"
   inkscape:export-filename="img/guia.png"
   inkscape:export-xdpi="96"
   inkscape:export-ydpi="96"
   xml:space="preserve"
   xmlns:inkscape="http://www.inkscape.org/namespaces/inkscape"
   xmlns:sodipodi="http://sodipodi.sourceforge.net/DTD/sodipodi-0.dtd"
   xmlns="http://www.w3.org/2000/svg"
   xmlns:svg="http://www.w3.org/2000/svg"><sodipodi:namedview
     id="namedview1"
     pagecolor="#3771c8"
     bordercolor="#000000"
     borderopacity="0.25"
     inkscape:showpageshadow="2"
     inkscape:pageopacity="0.0"
     inkscape:pagecheckerboard="0"
     inkscape:deskcolor="#d1d1d1"
     inkscape:document-units="px"
     inkscape:zoom="0.55937622"
     inkscape:cx="279.77593"
     inkscape:cy="210.94926"
     inkscape:window-width="1342"
     inkscape:window-height="648"
     inkscape:window-x="0"
     inkscape:window-y="0"
     inkscape:window-maximized="1"
     inkscape:current-layer="layer1" /><defs
     id="defs1" /><g
     inkscape:label="Capa 1"
     inkscape:groupmode="layer"
     id="layer1"><g
       id="g1"
       transform="translate(-1.5196477,0.01476622)"><g
         inkscape:export-ydpi="48.047401"
         inkscape:export-xdpi="48.047401"
         inkscape:label="#g12729"
         id="g74"
         style="display:inline;fill:#330080;stroke:none;stroke-width:10.7931;stroke-dasharray:43.1725, 21.5861, 10.7931, 21.5861;stroke-dashoffset:0"
         transform="matrix(-0.12254233,0,0,0.12261415,-1072.6402,-963.01594)"
         inkscape:export-filename="lapieza-icon.png"><path
           id="path73"
           style="color:#000000;display:inline;overflow:visible;visibility:visible;opacity:1;fill:#330080;fill-opacity:1;fill-rule:nonzero;stroke:none;stroke-width:10.7931;stroke-linecap:round;stroke-linejoin:round;stroke-miterlimit:4;stroke-dasharray:43.1725, 21.5861, 10.7931, 21.5861;stroke-dashoffset:0;stroke-opacity:1;marker:none;enable-background:accumulate"
           d="m -9828.6643,8609.1748 a 45.764912,28.284271 87.616785 0 1 30.1619,44.5509 45.764912,28.284271 87.616785 0 1 0.041,1.1521 c 0.054,0.011 0.1074,0.021 0.1614,0.032 3.2297,16.1052 7.2141,30.8571 14.6662,101.4887 1.5182,13.842 3.1597,28.6191 4.7721,43.8624 1.2581,5.4795 2.4673,11.2959 3.6268,17.4635 14.4482,76.8543 92.6249,136.6851 72.9152,161.9943 -12.8175,16.459 -38.3999,-7.2622 -66.7979,-43.1351 0.6891,79.44 -15.3031,99.0966 -34.0454,107.5311 a 48.263827,28.285042 88.774698 0 1 0.7567,9.4078 48.263827,28.285042 88.774698 0 1 -27.1782,48.9662 48.263827,28.285042 88.774698 0 1 -29.2075,-43.8783 c -30.2111,4.1267 -63.7165,4.193 -93.233,0.4068 a 28.284271,48.265013 0 0 1 -28.2007,44.5463 28.284271,48.265013 0 0 1 -28.2823,-48.264 28.284271,48.265013 0 0 1 0.718,-10.8076 c -8.028,-3.8034 -14.507,-8.2192 -18.943,-13.2346 -16.592,-12.0009 -23.267,-51.1376 -25.256,-102.4045 -29.278,40.2326 -56.383,68.6262 -70.436,51.5817 -20.407,-24.7504 56.071,-86.7356 68.373,-163.9622 1.046,-6.567 2.16,-12.742 3.338,-18.5407 1.664,-48.1182 3.779,-96.707 3.779,-138.411 0,-4e-4 0,3e-4 0,0 a 50.759873,30.192459 82.611351 0 1 -0.08,-1.1613 50.759873,30.192459 82.611351 0 1 27.205,-48.9002 50.759873,30.192459 82.611351 0 1 31.98,39.4901 c 38.9496,-5.9343 79.9815,-8.9018 133.08,-2.9609 a 45.764912,28.284271 87.616785 0 1 26.0828,-36.8133 z" /></g><g
         inkscape:export-ydpi="48.047401"
         inkscape:export-xdpi="48.047401"
         inkscape:label="#g12729"
         id="g87"
         style="display:inline;stroke:none;stroke-width:0.293204"
         transform="matrix(-0.12254233,0,0,0.12261415,-1074.6123,-963.30311)"
         inkscape:export-filename="lapieza-icon.png"><path
           style="color:#000000;display:inline;overflow:visible;visibility:visible;opacity:1;fill:#34cca6;fill-opacity:1;fill-rule:nonzero;stroke:none;stroke-width:0;stroke-linecap:round;stroke-linejoin:round;stroke-miterlimit:4;stroke-dasharray:none;stroke-dashoffset:0;stroke-opacity:1;marker:none;enable-background:accumulate"
           d="m -10046.936,8659.5212 c 72.3696,-13.6169 134.645,-27.4136 248.6354,-4.6121 3.2297,16.1052 7.2156,30.8575 14.6677,101.4891 5.871,53.5275 13.5593,121.0307 14.4558,175.4504 1.3837,83.9982 -15.1117,103.9532 -34.3984,112.4486 -62.9763,27.7398 -192.3395,21.8029 -223.1575,-13.0399 -42.246,-30.5571 -20.203,-237.0491 -20.203,-371.7361 z"
           id="path76"
           inkscape:connector-curvature="0"
           sodipodi:nodetypes="cccsscc"
           inkscape:export-xdpi="9.1000004"
           inkscape:export-ydpi="9.1000004" /><path
           style="color:#000000;display:inline;overflow:visible;visibility:visible;opacity:1;fill:#34cca6;fill-opacity:1;fill-rule:nonzero;stroke:none;stroke-width:0;stroke-linecap:round;stroke-linejoin:round;stroke-miterlimit:4;stroke-dasharray:none;stroke-dashoffset:0;stroke-opacity:1;marker:none;enable-background:accumulate"
           d="m -9798.5014,8653.7248 a 45.764912,28.284271 87.616785 0 1 -26.3568,46.9016 45.764912,28.284271 87.616785 0 1 -30.1628,-44.549 45.764912,28.284271 87.616785 0 1 26.3567,-46.9016 45.764912,28.284271 87.616785 0 1 30.1629,44.549 z"
           id="path77"
           inkscape:connector-curvature="0"
           inkscape:export-xdpi="9.1000004"
           inkscape:export-ydpi="9.1000004" /><path
           inkscape:connector-curvature="0"
           id="path78"
           d="m -9986.072,8661.4852 a 50.759873,30.192459 82.611351 0 1 -27.206,48.9008 50.759873,30.192459 82.611351 0 1 -33.735,-52.0265 50.759873,30.192459 82.611351 0 1 27.207,-48.9009 50.759873,30.192459 82.611351 0 1 33.734,52.0266 z"
           style="color:#000000;display:inline;overflow:visible;visibility:visible;opacity:1;fill:#34cca6;fill-opacity:1;fill-rule:nonzero;stroke:none;stroke-width:0;stroke-linecap:round;stroke-linejoin:round;stroke-miterlimit:4;stroke-dasharray:none;stroke-dashoffset:0;stroke-opacity:1;marker:none;enable-background:accumulate"
           inkscape:export-xdpi="9.1000004"
           inkscape:export-ydpi="9.1000004" /><path
           inkscape:connector-curvature="0"
           id="path79"
           d="m -9802.4055,9053.5231 a 48.263827,28.285042 88.774698 0 1 -27.1798,48.9659 48.263827,28.285042 88.774698 0 1 -29.3724,-47.5365 48.263827,28.285042 88.774698 0 1 27.1796,-48.9659 48.263827,28.285042 88.774698 0 1 29.3726,47.5365 z"
           style="color:#000000;display:inline;overflow:visible;visibility:visible;opacity:1;fill:#34cca6;fill-opacity:1;fill-rule:nonzero;stroke:none;stroke-width:0;stroke-linecap:round;stroke-linejoin:round;stroke-miterlimit:4;stroke-dasharray:none;stroke-dashoffset:0;stroke-opacity:1;marker:none;enable-background:accumulate"
           inkscape:export-xdpi="9.1000004"
           inkscape:export-ydpi="9.1000004" /><path
           style="color:#000000;display:inline;overflow:visible;visibility:visible;opacity:1;fill:#34cca6;fill-opacity:1;fill-rule:nonzero;stroke:none;stroke-width:0;stroke-linecap:round;stroke-linejoin:round;stroke-miterlimit:4;stroke-dasharray:none;stroke-dashoffset:0;stroke-opacity:1;marker:none;enable-background:accumulate"
           d="m -9951.9406,9055.2983 a 28.284271,48.265013 0 0 1 -28.2844,48.265 28.284271,48.265013 0 0 1 -28.284,-48.265 28.284271,48.265013 0 0 1 28.284,-48.265 28.284271,48.265013 0 0 1 28.2844,48.265 z"
           id="path80"
           inkscape:connector-curvature="0"
           inkscape:export-xdpi="9.1000004"
           inkscape:export-ydpi="9.1000004" /><path
           inkscape:connector-curvature="0"
           id="path81"
           d="m -9815.8243,8872.5323 c -43.9037,-62.7942 -53.0487,-130.4275 -17.9784,-147.0611 22.6285,-6.1213 44.4122,16.9524 58.5684,92.2532 14.4482,76.8543 92.6231,136.6847 72.9134,161.9939 -19.7097,25.3092 -69.5995,-44.3917 -113.5034,-107.186 z"
           style="color:#000000;display:inline;overflow:visible;visibility:visible;opacity:1;fill:#34cca6;fill-opacity:1;fill-rule:nonzero;stroke:none;stroke-width:0;stroke-linecap:round;stroke-linejoin:round;stroke-miterlimit:4;stroke-dasharray:none;stroke-dashoffset:0;stroke-opacity:1;marker:none;enable-background:accumulate"
           sodipodi:nodetypes="scszs"
           inkscape:export-xdpi="9.1000004"
           inkscape:export-ydpi="9.1000004" /><path
           inkscape:export-ydpi="9.1000004"
           inkscape:export-xdpi="9.1000004"
           sodipodi:nodetypes="ccsc"
           inkscape:connector-curvature="0"
           id="path12157"
           d="m -9977.8573,8777.2293 c 72.9557,25.2774 135.5675,11.8093 193.3276,-20 -11.8909,120.8627 -33.5384,146.6714 -90.4649,146.3702 -64.4656,-0.3409 -87.8949,-45.4102 -102.8627,-126.3702 z"
           style="fill:#00887e;fill-opacity:1;fill-rule:evenodd;stroke:none;stroke-width:0.218285px;stroke-linecap:butt;stroke-linejoin:miter;stroke-opacity:1" /><path
           sodipodi:nodetypes="scszs"
           style="color:#000000;display:inline;overflow:visible;visibility:visible;opacity:1;fill:#34cca6;fill-opacity:1;fill-rule:nonzero;stroke:none;stroke-width:0;stroke-linecap:round;stroke-linejoin:round;stroke-miterlimit:4;stroke-dasharray:none;stroke-dashoffset:0;stroke-opacity:1;marker:none;enable-background:accumulate"
           d="m -10011.952,8870.1293 c 42.1383,-63.9926 49.3963,-131.8543 13.876,-147.5049 -22.79,-5.4888 -43.922,18.1825 -55.976,93.8485 -12.302,77.2266 -88.781,139.2112 -68.374,163.9616 20.407,24.7504 68.336,-46.3126 110.474,-110.3052 z"
           id="path82"
           inkscape:connector-curvature="0"
           inkscape:export-xdpi="9.1000004"
           inkscape:export-ydpi="9.1000004" /><path
           style="fill:#ffffff;fill-opacity:1;fill-rule:evenodd;stroke:none;stroke-width:0.218285px;stroke-linecap:butt;stroke-linejoin:miter;stroke-opacity:1"
           d="m -9805.0036,8860.5859 c -13.98,33.879 -35.901,43.2457 -69.991,43.0136 -30.2185,-0.2055 -51.4206,-10.1481 -66.9604,-29.0544 27.0513,-28.5642 29.7383,-22.5384 49.1582,18.3862 23.845,-39.5983 30.0529,-44.1504 49.4227,-3.6784 12.2347,-16.4551 24.0916,-51.0691 38.3705,-28.667 z"
           id="path12161"
           inkscape:connector-curvature="0"
           sodipodi:nodetypes="cscccc"
           inkscape:export-xdpi="9.1000004"
           inkscape:export-ydpi="9.1000004" /><path
           style="color:#000000;display:inline;overflow:visible;visibility:visible;opacity:1;fill:#000000;fill-opacity:1;fill-rule:nonzero;stroke:none;stroke-width:0;stroke-linecap:round;stroke-linejoin:round;stroke-miterlimit:4;stroke-dasharray:none;stroke-dashoffset:0;stroke-opacity:1;marker:none;enable-background:accumulate"
           d="m -9822.5477,8711.6635 a 31.52897,21.475045 87.426699 0 1 -23.3123,27.3869 31.52897,21.475045 87.426699 0 1 -19.5202,-35.156 31.52897,21.475045 87.426699 0 1 23.3123,-27.387 31.52897,21.475045 87.426699 0 1 19.5202,35.1561 z"
           id="path83"
           inkscape:connector-curvature="0"
           inkscape:export-xdpi="9.1000004"
           inkscape:export-ydpi="9.1000004" /><path
           inkscape:connector-curvature="0"
           id="path84"
           d="m -9921.4835,8714.9472 a 32.231617,22.222885 84.90354 0 1 -22.3138,29.9399 32.231617,22.222885 84.90354 0 1 -22.3249,-34.2454 32.231617,22.222885 84.90354 0 1 22.3137,-29.9399 32.231617,22.222885 84.90354 0 1 22.325,34.2454 z"
           style="color:#000000;display:inline;overflow:visible;visibility:visible;opacity:1;fill:#000000;fill-opacity:1;fill-rule:nonzero;stroke:none;stroke-width:0;stroke-linecap:round;stroke-linejoin:round;stroke-miterlimit:4;stroke-dasharray:none;stroke-dashoffset:0;stroke-opacity:1;marker:none;enable-background:accumulate"
           inkscape:export-xdpi="9.1000004"
           inkscape:export-ydpi="9.1000004" /><path
           style="color:#000000;display:inline;overflow:visible;visibility:visible;opacity:1;fill:#ffffff;fill-opacity:1;fill-rule:nonzero;stroke:none;stroke-width:0;stroke-linecap:round;stroke-linejoin:round;stroke-miterlimit:4;stroke-dasharray:none;stroke-dashoffset:0;stroke-opacity:1;marker:none;enable-background:accumulate"
           d="m -9944.9712,8705.3043 a 7.9148148,11.92227 10.000285 0 1 -10.4806,8.7174 7.9148148,11.92227 10.000285 0 1 -4.4988,-14.2651 7.9148148,11.92227 10.000285 0 1 10.4806,-8.7174 7.9148148,11.92227 10.000285 0 1 4.4988,14.2651 z"
           id="path85"
           inkscape:connector-curvature="0"
           inkscape:export-xdpi="9.1000004"
           inkscape:export-ydpi="9.1000004" /><path
           inkscape:connector-curvature="0"
           id="path86"
           d="m -9842.4387,8700.4303 a 7.8099299,11.764279 6.4014837 0 1 -9.7814,9.2342 7.8099299,11.764279 6.4014837 0 1 -5.314,-13.7698 7.8099299,11.764279 6.4014837 0 1 9.7814,-9.234 7.8099299,11.764279 6.4014837 0 1 5.314,13.7696 z"
           style="color:#000000;display:inline;overflow:visible;visibility:visible;opacity:1;fill:#ffffff;fill-opacity:1;fill-rule:nonzero;stroke:none;stroke-width:0;stroke-linecap:round;stroke-linejoin:round;stroke-miterlimit:4;stroke-dasharray:none;stroke-dashoffset:0;stroke-opacity:1;marker:none;enable-background:accumulate"
           inkscape:export-xdpi="9.1000004"
           inkscape:export-ydpi="9.1000004" /><path
           style="opacity:1;fill:#ffffff;fill-rule:evenodd;stroke:none;stroke-width:0.293204px;stroke-linecap:butt;stroke-linejoin:miter;stroke-opacity:1"
           d="m -9977.519,8777.2443 c 72.9129,25.2774 135.488,11.8093 193.2142,-20 0,0 -5.5366,65.9265 -21.0714,67.8572 -10.7538,1.3365 -32.1429,-37.8572 -32.1429,-37.8572 0,0 -17.6568,47.4817 -28.5714,47.8572 -10.9146,0.3755 -32.8571,-40.7143 -32.8571,-40.7143 0,0 -19.4975,47.5934 -31.4286,47.1428 -14.393,-0.5435 -47.1428,-64.2857 -47.1428,-64.2857 z"
           id="path87"
           inkscape:connector-curvature="0"
           sodipodi:nodetypes="ccsczcsc"
           inkscape:export-xdpi="9.1000004"
           inkscape:export-ydpi="9.1000004" /></g><g
         inkscape:export-ydpi="48.047401"
         inkscape:export-xdpi="48.047401"
         inkscape:label="#g12729"
         id="g88"
         style="display:inline;fill:none;stroke:#ffffff;stroke-width:10.7931;stroke-dasharray:none;stroke-dashoffset:0"
         transform="matrix(-0.12254233,0,0,0.12261415,-1074.9214,-963.44383)"
         inkscape:export-filename="lapieza-icon.png"><path
           id="path88"
           style="color:#000000;display:inline;overflow:visible;visibility:visible;opacity:1;fill:none;fill-opacity:1;fill-rule:nonzero;stroke:#ffffff;stroke-width:10.7931;stroke-linecap:round;stroke-linejoin:round;stroke-miterlimit:4;stroke-dasharray:none;stroke-dashoffset:0;stroke-opacity:1;marker:none;enable-background:accumulate"
           d="m -9828.6643,8609.1748 a 45.764912,28.284271 87.616785 0 1 30.1619,44.5509 45.764912,28.284271 87.616785 0 1 0.041,1.1521 c 0.054,0.011 0.1074,0.021 0.1614,0.032 3.2297,16.1052 7.2141,30.8571 14.6662,101.4887 1.5182,13.842 3.1597,28.6191 4.7721,43.8624 1.2581,5.4795 2.4673,11.2959 3.6268,17.4635 14.4482,76.8543 92.6249,136.6851 72.9152,161.9943 -12.8175,16.459 -38.3999,-7.2622 -66.7979,-43.1351 0.6891,79.44 -15.3031,99.0966 -34.0454,107.5311 a 48.263827,28.285042 88.774698 0 1 0.7567,9.4078 48.263827,28.285042 88.774698 0 1 -27.1782,48.9662 48.263827,28.285042 88.774698 0 1 -29.2075,-43.8783 c -30.2111,4.1267 -63.7165,4.193 -93.233,0.4068 a 28.284271,48.265013 0 0 1 -28.2007,44.5463 28.284271,48.265013 0 0 1 -28.2823,-48.264 28.284271,48.265013 0 0 1 0.718,-10.8076 c -8.028,-3.8034 -14.507,-8.2192 -18.943,-13.2346 -16.592,-12.0009 -23.267,-51.1376 -25.256,-102.4045 -29.278,40.2326 -56.383,68.6262 -70.436,51.5817 -20.407,-24.7504 56.071,-86.7356 68.373,-163.9622 1.046,-6.567 2.16,-12.742 3.338,-18.5407 1.664,-48.1182 3.779,-96.707 3.779,-138.411 0,-4e-4 0,3e-4 0,0 a 50.759873,30.192459 82.611351 0 1 -0.08,-1.1613 50.759873,30.192459 82.611351 0 1 27.205,-48.9002 50.759873,30.192459 82.611351 0 1 31.98,39.4901 c 38.9496,-5.9343 79.9815,-8.9018 133.08,-2.9609 a 45.764912,28.284271 87.616785 0 1 26.0828,-36.8133 z" /></g></g><path
       id="path1"
       style="fill:#422880;fill-opacity:1;stroke:#ffffff;stroke-width:1.32292;stroke-linecap:square"
       d="M 3.9687499,3.9687499 164.04166,7.9374998 158.75,87.312498 H 100.54166 L 128.32291,120.91458 64.822915,87.312498 H 7.9374998 Z"
       sodipodi:nodetypes="cccccccc" /></g></svg>
